<svg version="1.1" id="Layer_1" xmlns="http://www.w3.org/2000/svg" xmlns:xlink="http://www.w3.org/1999/xlink" x="0px" y="0px"
	 width="100%" viewBox="0 0 612 612" enable-background="new 0 0 612 612" xml:space="preserve">
<path fill="#FFFFFF" opacity="1.000000" stroke="none" 
	d="
M409.000000,613.000000 
	C272.666687,613.000000 136.833389,613.000000 1.000055,613.000000 
	C1.000036,409.000061 1.000036,205.000122 1.000018,1.000137 
	C204.999893,1.000091 408.999786,1.000091 612.999756,1.000046 
	C612.999878,204.999863 612.999878,408.999725 612.999939,612.999756 
	C545.166687,613.000000 477.333344,613.000000 409.000000,613.000000 
M349.011993,247.935257 
	C352.490143,244.650681 355.764557,241.111984 359.484467,238.128906 
	C370.875793,228.993942 382.438202,220.072327 394.788910,210.398132 
	C396.496582,216.388641 397.836487,221.089081 399.208221,225.901184 
	C406.694214,223.058212 407.162018,216.538025 407.836151,210.528885 
	C408.427734,205.255310 410.365631,202.306366 415.879639,201.144775 
	C421.923767,199.871536 427.741028,197.521408 434.129913,195.490250 
	C434.883942,213.189484 435.602875,230.063919 436.344452,247.470093 
	C442.657776,243.784317 444.667023,238.005341 446.399536,232.131485 
	C450.681580,217.613632 454.745544,203.030075 459.195160,188.564606 
	C459.810059,186.565613 461.784088,184.323730 463.693451,183.495026 
	C473.454071,179.258850 483.586853,175.846359 493.200317,171.319412 
	C497.851135,169.129379 502.111725,165.570145 505.700928,161.819305 
	C509.238312,158.122620 507.803253,154.692535 502.740784,154.343597 
	C498.181946,154.029404 493.119873,153.830780 489.005157,155.438141 
	C464.532928,164.997849 439.980042,174.457809 416.091064,185.348190 
	C407.268799,189.370026 400.925568,190.632065 393.798889,183.347961 
	C390.731384,180.212662 386.314697,179.150589 381.845337,181.432068 
	C385.239471,188.729599 388.472382,195.995193 391.996307,203.116760 
	C393.620880,206.399979 392.952545,207.890335 389.620789,209.565353 
	C362.312561,223.294434 336.743652,239.784607 313.018158,259.054382 
	C267.339355,296.154602 230.169067,340.428650 203.106476,392.713013 
	C193.121704,412.003418 185.481705,432.507294 176.764420,452.454254 
	C175.832901,454.585724 175.289642,456.311462 178.103821,457.766449 
	C190.731018,464.294739 203.755066,469.605377 218.702194,472.020508 
	C268.021057,480.048370 310.992920,466.954010 344.680267,430.095459 
	C382.450043,388.770294 390.691162,340.305176 372.327850,287.575348 
	C367.286896,273.100464 359.700378,259.763062 349.011993,247.935257 
M241.412262,242.784927 
	C263.472198,233.356339 285.532135,223.927750 306.981415,214.760147 
	C261.169830,189.398026 195.633881,193.679474 150.072083,236.208862 
	C134.767868,250.494492 123.255493,267.394226 115.687195,286.963562 
	C108.177513,306.381317 105.198792,326.386810 106.793900,348.639374 
	C145.294922,303.921448 189.598099,269.137329 241.412262,242.784927 
M419.520905,170.038193 
	C420.827820,170.848862 422.479614,172.635605 423.386841,172.315063 
	C430.346649,169.855927 437.161713,166.987183 445.279205,163.743134 
	C431.020172,155.783157 418.095825,148.319885 404.894409,141.383957 
	C401.828247,139.773010 397.817993,139.959015 394.242126,139.318176 
	C394.104065,139.770401 393.966034,140.222626 393.827972,140.674850 
	C402.216187,150.304077 410.604370,159.933319 419.520905,170.038193 
z"/>
<path fill="#01CCFE" opacity="1.000000" stroke="none" 
	d="
M348.886658,248.562256 
	C359.700378,259.763062 367.286896,273.100464 372.327850,287.575348 
	C390.691162,340.305176 382.450043,388.770294 344.680267,430.095459 
	C310.992920,466.954010 268.021057,480.048370 218.317841,471.468231 
	C223.294815,452.640594 227.905426,434.101654 234.207092,416.156494 
	C242.122345,393.616394 252.850937,372.281525 264.733032,351.489655 
	C284.728394,316.500824 309.685791,285.466156 338.142029,257.125671 
	C341.367340,253.913498 345.288300,251.399826 348.886658,248.562256 
z"/>
<path fill="#35699A" opacity="1.000000" stroke="none" 
	d="
M348.949341,248.248749 
	C345.288300,251.399826 341.367340,253.913498 338.142029,257.125671 
	C309.685791,285.466156 284.728394,316.500824 264.733032,351.489655 
	C252.850937,372.281525 242.122345,393.616394 234.207092,416.156494 
	C227.905426,434.101654 223.294815,452.640594 217.925598,471.314240 
	C203.755066,469.605377 190.731018,464.294739 178.103821,457.766449 
	C175.289642,456.311462 175.832901,454.585724 176.764420,452.454254 
	C185.481705,432.507294 193.121704,412.003418 203.106476,392.713013 
	C230.169067,340.428650 267.339355,296.154602 313.018158,259.054382 
	C336.743652,239.784607 362.312561,223.294434 389.620789,209.565353 
	C392.952545,207.890335 393.620880,206.399979 391.996307,203.116760 
	C388.472382,195.995193 385.239471,188.729599 381.845337,181.432068 
	C386.314697,179.150589 390.731384,180.212662 393.798889,183.347961 
	C400.925568,190.632065 407.268799,189.370026 416.091064,185.348190 
	C439.980042,174.457809 464.532928,164.997849 489.005157,155.438141 
	C493.119873,153.830780 498.181946,154.029404 502.740784,154.343597 
	C507.803253,154.692535 509.238312,158.122620 505.700928,161.819305 
	C502.111725,165.570145 497.851135,169.129379 493.200317,171.319412 
	C483.586853,175.846359 473.454071,179.258850 463.693451,183.495026 
	C461.784088,184.323730 459.810059,186.565613 459.195160,188.564606 
	C454.745544,203.030075 450.681580,217.613632 446.399536,232.131485 
	C444.667023,238.005341 442.657776,243.784317 436.344452,247.470093 
	C435.602875,230.063919 434.883942,213.189484 434.129913,195.490250 
	C427.741028,197.521408 421.923767,199.871536 415.879639,201.144775 
	C410.365631,202.306366 408.427734,205.255310 407.836151,210.528885 
	C407.162018,216.538025 406.694214,223.058212 399.208221,225.901184 
	C397.836487,221.089081 396.496582,216.388641 394.788910,210.398132 
	C382.438202,220.072327 370.875793,228.993942 359.484467,238.128906 
	C355.764557,241.111984 352.490143,244.650681 348.949341,248.248749 
z"/>
<path fill="#04CDFE" opacity="1.000000" stroke="none" 
	d="
M241.072891,242.942032 
	C189.598099,269.137329 145.294922,303.921448 106.793900,348.639374 
	C105.198792,326.386810 108.177513,306.381317 115.687195,286.963562 
	C123.255493,267.394226 134.767868,250.494492 150.072083,236.208862 
	C195.633881,193.679474 261.169830,189.398026 306.981415,214.760147 
	C285.532135,223.927750 263.472198,233.356339 241.072891,242.942032 
z"/>
<path fill="#3A6B9B" opacity="1.000000" stroke="none" 
	d="
M419.256714,169.800385 
	C410.604370,159.933319 402.216187,150.304077 393.827972,140.674850 
	C393.966034,140.222626 394.104065,139.770401 394.242126,139.318176 
	C397.817993,139.959015 401.828247,139.773010 404.894409,141.383957 
	C418.095825,148.319885 431.020172,155.783157 445.279205,163.743134 
	C437.161713,166.987183 430.346649,169.855927 423.386841,172.315063 
	C422.479614,172.635605 420.827820,170.848862 419.256714,169.800385 
z"/>
</svg>